<?xml version="1.0" encoding="UTF-8"?>
<svg id="Layer_5" data-name="Layer 5" xmlns="http://www.w3.org/2000/svg" viewBox="0 0 1854.31 377.66">
  <defs>
    <style>
      .cls-1 {
        fill: none;
        stroke: #231f20;
        stroke-miterlimit: 10;
        stroke-width: 45.95px;
      }

      .cls-2 {
        fill: #231f20;
      }
    </style>
  </defs>
  <g id="MUSIC_LEFT" data-name="MUSIC LEFT">
    <path class="cls-2" d="M40.01,356.03h-.46l-25.4-38.04v57.99H0v-81.19H15.19l24.7,38.39,24.7-38.39h15.19v81.19h-14.15v-58.22l-25.63,38.27Z"/>
    <path class="cls-2" d="M168.87,340.83c0,6.03-.83,11.33-2.49,15.89-1.66,4.56-4,8.37-7.02,11.42-3.02,3.06-6.67,5.34-10.96,6.84-4.29,1.51-9.1,2.26-14.44,2.26s-10.01-.75-14.27-2.26c-4.25-1.51-7.89-3.77-10.9-6.79-3.02-3.02-5.33-6.75-6.96-11.19-1.62-4.45-2.44-9.61-2.44-15.48v-46.74h14.15v46.16c0,7.58,1.83,13.34,5.48,17.28,3.65,3.94,8.71,5.92,15.16,5.92s11.39-1.89,15.05-5.68c3.65-3.79,5.48-9.43,5.48-16.93v-46.74h14.15v46.04Z"/>
    <path class="cls-2" d="M201.23,320.19c.54,1.16,1.53,2.24,2.96,3.25,1.43,1.01,3.41,1.93,5.93,2.78,2.52,.85,5.72,1.74,9.59,2.67,4.26,1.08,8.04,2.28,11.34,3.6,3.29,1.32,6.03,2.92,8.2,4.81,2.17,1.9,3.82,4.1,4.94,6.61,1.12,2.51,1.69,5.47,1.69,8.87,0,3.87-.71,7.31-2.13,10.32s-3.39,5.57-5.92,7.66c-2.53,2.09-5.57,3.67-9.12,4.75-3.55,1.08-7.45,1.62-11.71,1.62-6.26,0-12.26-1.06-17.98-3.19-5.72-2.13-11.02-5.39-15.89-9.8l8.58-10.21c3.94,3.4,7.92,6.01,11.95,7.83,4.02,1.82,8.58,2.73,13.69,2.73,4.41,0,7.9-.93,10.5-2.78,2.59-1.86,3.88-4.37,3.88-7.54,0-1.47-.25-2.78-.76-3.94-.5-1.16-1.43-2.22-2.79-3.19-1.36-.97-3.22-1.87-5.58-2.72-2.36-.85-5.45-1.74-9.24-2.67-4.34-1-8.2-2.13-11.57-3.36-3.37-1.24-6.2-2.78-8.49-4.64-2.29-1.86-4.03-4.1-5.23-6.73-1.2-2.63-1.8-5.84-1.8-9.63,0-3.56,.69-6.79,2.07-9.68s3.28-5.39,5.69-7.48c2.42-2.09,5.32-3.69,8.72-4.81,3.39-1.12,7.1-1.68,11.12-1.68,5.95,0,11.31,.87,16.06,2.61,4.76,1.74,9.22,4.27,13.4,7.6l-7.66,10.79c-3.71-2.71-7.38-4.77-11.02-6.21-3.64-1.43-7.31-2.15-11.02-2.15-4.17,0-7.42,.95-9.74,2.84-2.32,1.9-3.48,4.2-3.48,6.9,0,1.62,.27,3.02,.81,4.18Z"/>
    <path class="cls-2" d="M277.65,294.79v81.19h-14.15v-81.19h14.15Z"/>
    <path class="cls-2" d="M363.54,368.96c-2.28,1.74-4.74,3.25-7.37,4.52-2.63,1.28-5.51,2.24-8.64,2.9-3.13,.66-6.59,.99-10.38,.99-5.96,0-11.44-1.08-16.47-3.25-5.03-2.16-9.38-5.12-13.05-8.87-3.67-3.75-6.55-8.18-8.64-13.28-2.09-5.1-3.13-10.59-3.13-16.47s1.02-11.25,3.07-16.35c2.05-5.1,4.93-9.57,8.64-13.4,3.71-3.83,8.12-6.84,13.22-9.05,5.1-2.2,10.75-3.31,16.93-3.31,3.71,0,7.09,.31,10.15,.93,3.05,.62,5.86,1.49,8.41,2.61,2.55,1.12,4.91,2.46,7.07,4,2.16,1.55,4.21,3.25,6.15,5.1l-9.16,10.55c-3.25-3.02-6.69-5.45-10.32-7.31-3.64-1.86-7.77-2.78-12.41-2.78-3.87,0-7.44,.75-10.73,2.26-3.29,1.51-6.13,3.56-8.52,6.15-2.4,2.59-4.25,5.62-5.57,9.1-1.32,3.48-1.97,7.23-1.97,11.25s.66,7.79,1.97,11.31c1.31,3.52,3.17,6.59,5.57,9.22,2.4,2.63,5.24,4.7,8.52,6.21,3.29,1.51,6.86,2.26,10.73,2.26,4.95,0,9.2-.95,12.76-2.84,3.56-1.89,7.08-4.46,10.55-7.71l9.16,9.28c-2.09,2.24-4.27,4.23-6.55,5.97Z"/>
  </g>
  <g id="TEXT">
    <path class="cls-2" d="M1811.37,233.38l-111.12-145.87V233.38h-49.82V3.93h46.55l107.51,141.28V3.93h49.82V233.38h-42.94Z"/>
    <polygon class="cls-1" points="1483.66 29.03 1405.85 64.97 1386.63 145.75 1440.48 210.52 1526.84 210.52 1580.69 145.75 1561.47 64.97 1483.66 29.03"/>
    <path class="cls-2" d="M1225.28,233.38c-71.46,0-120.63-48.49-120.63-114.09v-.63c0-63.07,50.81-114.73,120.3-114.73,41.3,0,66.21,10.78,90.14,30.42l-31.8,37.08c-17.7-14.26-33.43-22.5-59.99-22.5-36.71,0-65.88,31.38-65.88,69.09v.63c0,40.57,28.84,70.36,69.49,70.36,18.36,0,34.75-4.44,47.53-13.31v-31.69h-50.81v-42.15h99.65v96.34c-23.6,19.33-56.05,35.18-98.01,35.18Z"/>
    <path class="cls-2" d="M1041.39,233.38l-20.98-51.1h-97.02l-20.98,51.1h-51.46L949.28,3.93h46.55l98.34,229.45h-52.77Zm-69.49-169.24l-30.48,73.88h60.97l-30.48-73.88Z"/>
    <path class="cls-2" d="M791.61,50.48V233.38h-50.48V50.48h-69.82V3.93h190.12V50.48h-69.82Z"/>
    <path class="cls-2" d="M557.57,164.55h-38.35v68.84h-50.48V3.93h93.75c54.74,0,87.85,32.45,87.85,79.32v.66c0,53.1-41.3,80.64-92.76,80.64Zm41.63-80.31c0-22.62-15.73-34.75-40.97-34.75h-39.01V119.64h39.99c25.24,0,39.99-15.08,39.99-34.75v-.66Z"/>
    <path class="cls-2" d="M249.12,233.38V3.93h173.07V48.84h-122.92v46.55h108.17v44.91h-108.17v48.18h124.56v44.91H249.12Z"/>
    <path class="cls-2" d="M143.57,233.38v-92.11H50.48v92.11H0V3.93H50.48V94.73h93.09V3.93h50.48V233.38h-50.48Z"/>
  </g>
</svg>